<?xml version="1.0" standalone="no"?>
<!DOCTYPE svg PUBLIC "-//W3C//DTD SVG 20010904//EN"
 "http://www.w3.org/TR/2001/REC-SVG-20010904/DTD/svg10.dtd">
<svg version="1.0" xmlns="http://www.w3.org/2000/svg"
 width="680.000000pt" height="680.000000pt" viewBox="246.5 242.5 555 555"
 preserveAspectRatio="xMidYMid meet">

<g transform="translate(0.000000,1024.000000) scale(0.100000,-0.100000)"
fill="#000000" stroke="none">
<path d="M3030 7685 c-418 -95 -645 -619 -524 -1213 23 -112 60 -216 124 -344
l58 -118 -10 -112 c-10 -124 2 -332 28 -473 39 -204 113 -517 133 -553 28 -52
104 -31 145 41 13 23 47 107 76 186 99 274 198 456 354 651 92 116 176 210
397 445 46 50 182 196 301 325 120 129 262 275 315 324 54 49 99 92 101 95 1
3 -44 5 -100 3 -187 -6 -244 26 -440 249 -209 238 -322 335 -488 419 -157 79
-329 107 -470 75z"/>
<path d="M3985 7443 c263 -262 287 -280 425 -309 128 -27 281 -1 398 66 47 28
60 50 29 50 -6 0 -56 12 -111 28 l-99 27 79 12 c129 20 424 27 564 14 466 -44
746 -162 1001 -421 129 -131 254 -328 316 -500 l23 -65 -6 50 c-19 156 -92
348 -173 455 -58 77 -193 211 -263 262 -37 27 -53 44 -44 46 9 2 61 -8 116
-22 411 -107 675 -285 805 -544 68 -137 69 -138 69 -452 1 -324 5 -349 81
-505 51 -104 221 -372 325 -511 40 -52 121 -146 181 -208 114 -119 121 -133
94 -185 -19 -37 -67 -56 -134 -54 -43 2 -80 14 -184 65 l-131 62 -95 1 c-70 0
-109 -5 -143 -18 -43 -17 -100 -67 -110 -97 -5 -15 -85 17 -107 43 -7 10 -17
17 -21 17 -15 0 -32 -101 -26 -153 19 -144 126 -251 316 -312 84 -27 122 -49
166 -97 85 -92 97 -212 36 -343 -65 -137 -263 -298 -464 -375 -136 -52 -194
-64 -318 -65 -104 0 -120 3 -164 25 -49 25 -119 98 -130 136 -6 20 -4 20 51
13 116 -16 256 22 346 93 l41 33 -134 6 c-199 9 -285 49 -350 163 -42 72 -39
79 23 51 106 -49 264 -55 365 -16 81 32 71 43 -77 85 -113 33 -158 55 -213
104 -115 103 -104 243 41 526 77 149 91 199 91 321 0 202 -75 389 -239 600
-112 144 -178 245 -202 315 -22 61 -23 80 -24 335 -1 301 -5 326 -72 465 -63
129 -196 244 -363 314 -50 21 -210 67 -210 61 0 -3 15 -12 33 -21 47 -25 139
-97 202 -160 144 -145 212 -302 222 -520 4 -75 2 -123 -4 -127 -5 -4 -33 2
-61 13 -130 49 -327 45 -496 -11 -296 -98 -539 -315 -739 -661 -82 -141 -197
-380 -204 -424 -5 -30 -3 -34 18 -36 84 -5 165 27 218 88 22 26 60 93 91 161
69 157 139 260 246 366 93 93 255 210 261 190 3 -7 21 -38 42 -70 93 -145 230
-214 509 -257 127 -19 203 -57 268 -130 138 -157 187 -449 106 -641 -26 -65
-108 -181 -208 -296 -187 -215 -255 -327 -290 -475 -20 -90 -20 -278 1 -359
47 -181 166 -320 347 -404 155 -73 362 -108 578 -98 140 6 240 24 380 69 186
59 225 68 303 69 58 0 85 -4 109 -18 112 -66 93 -212 -46 -348 -113 -111 -264
-165 -461 -165 -196 0 -342 42 -640 185 -323 155 -477 193 -729 182 -245 -11
-467 -83 -666 -216 -82 -54 -170 -138 -135 -127 192 56 490 70 687 32 170 -33
205 -87 158 -245 -19 -65 -43 -202 -36 -209 2 -2 42 27 87 64 162 131 320 217
465 254 117 30 146 27 312 -35 226 -84 298 -99 482 -99 119 -1 173 3 230 18
99 24 241 93 314 153 138 112 256 326 256 465 0 27 6 43 21 56 129 106 191
183 259 324 84 176 117 347 106 563 -3 72 -12 159 -20 194 l-14 64 32 51 c47
75 56 101 56 159 0 88 -35 143 -266 427 -107 131 -158 214 -209 335 -52 124
-105 286 -105 320 0 14 19 69 43 123 l42 97 -1 140 c-1 121 -5 152 -28 228
-66 218 -209 417 -408 566 -47 35 -60 51 -68 85 -39 154 -95 261 -185 352 -80
81 -131 104 -229 104 -64 0 -147 -28 -203 -68 l-29 -21 -90 34 c-205 77 -518
158 -731 190 -378 56 -821 43 -1215 -36 l-96 -19 -93 56 c-131 80 -186 104
-374 161 -11 3 88 -102 220 -234z m3340 -1123 c38 -76 75 -189 75 -232 0 -27
-2 -29 -17 -17 -10 9 -41 14 -85 14 -42 0 -68 4 -68 11 0 6 7 57 16 115 15 96
14 178 -1 239 -8 30 31 -34 80 -130z m499 -2208 c-1 -149 -15 -218 -73 -367
-54 -138 -179 -292 -230 -283 -22 4 -61 85 -61 128 0 45 112 375 153 454 38
71 187 230 202 215 6 -6 9 -67 9 -147z"/>
<path d="M3862 5370 c-91 -56 -96 -196 -8 -252 40 -25 130 -21 169 7 110 81
49 265 -88 265 -22 0 -54 -9 -73 -20z"/>
<path d="M4811 5316 c-55 -31 -68 -114 -25 -165 81 -96 226 6 173 122 -22 49
-97 71 -148 43z"/>
<path d="M5115 5128 c-44 -26 -56 -50 -52 -107 5 -71 36 -101 104 -101 38 0
50 5 79 34 28 28 34 42 34 76 0 34 -6 48 -34 76 -27 27 -42 34 -72 34 -22 0
-48 -6 -59 -12z"/>
<path d="M3521 4987 c-86 -44 -91 -177 -9 -227 109 -66 243 46 195 163 -28 65
-121 98 -186 64z"/>
<path d="M4200 4929 c-19 -5 -50 -26 -67 -46 -29 -32 -33 -43 -33 -91 0 -94
53 -152 140 -152 82 0 140 49 155 130 4 26 0 47 -17 80 -35 67 -105 99 -178
79z"/>
<path d="M4778 4894 c-36 -19 -48 -43 -48 -94 0 -80 76 -123 150 -85 73 38 70
144 -5 180 -41 19 -62 19 -97 -1z"/>
<path d="M3120 4682 c-100 -50 -106 -197 -10 -244 67 -34 143 -13 188 52 42
62 18 146 -54 187 -47 27 -78 29 -124 5z"/>
<path d="M3712 4593 c-47 -23 -75 -67 -80 -128 -8 -102 56 -175 154 -175 125
0 204 131 143 240 -40 72 -141 101 -217 63z"/>
<path d="M4755 4501 c-57 -35 -70 -58 -70 -125 0 -53 4 -68 28 -99 65 -86 200
-68 252 34 32 61 7 144 -55 187 -42 28 -112 30 -155 3z"/>
<path d="M4342 4217 c-16 -17 -22 -36 -22 -69 0 -40 5 -50 32 -73 26 -22 39
-26 66 -21 65 10 101 64 82 122 -15 44 -45 64 -95 64 -30 0 -47 -6 -63 -23z"/>
<path d="M3260 4193 c-65 -25 -103 -83 -103 -159 0 -67 29 -116 87 -143 53
-26 96 -27 145 -1 73 37 106 104 89 182 -11 50 -31 78 -79 107 -33 20 -103 27
-139 14z"/>
<path d="M4007 4115 c-105 -37 -148 -154 -94 -250 61 -108 193 -124 279 -34
83 87 54 230 -56 280 -48 22 -77 23 -129 4z"/>
<path d="M4720 3967 c-35 -18 -70 -74 -70 -114 0 -107 100 -175 190 -128 131
68 89 255 -57 255 -21 0 -49 -6 -63 -13z"/>
<path d="M3677 3680 c-123 -39 -177 -202 -103 -309 40 -58 120 -96 183 -87 92
12 158 69 185 158 22 74 -24 177 -100 221 -36 21 -124 30 -165 17z"/>
<path d="M4404 3650 c-32 -13 -72 -67 -80 -106 -9 -49 9 -104 46 -139 41 -39
128 -47 178 -16 93 59 95 187 3 248 -35 24 -105 30 -147 13z"/>
<path d="M4223 3069 c-80 -39 -113 -137 -75 -222 47 -105 184 -127 268 -43 83
83 57 218 -50 267 -53 24 -91 24 -143 -2z"/>
<path d="M4906 2614 c-36 -37 -36 -93 2 -133 15 -17 34 -31 42 -32 72 -8 120
30 120 93 0 86 -104 131 -164 72z"/>
</g>
</svg>
